<mxfile host="app.diagrams.net" agent="Mozilla/5.0 (Windows NT 10.0; Win64; x64) AppleWebKit/537.36 (KHTML, like Gecko) Chrome/133.0.0.0 Safari/537.36" version="26.0.16">
  <diagram name="Seite-1" id="IGzOPPFE7aq8hMTPI8w9">
    <mxGraphModel dx="1295" dy="486" grid="1" gridSize="10" guides="1" tooltips="1" connect="1" arrows="1" fold="1" page="1" pageScale="1" pageWidth="827" pageHeight="1169" math="1" shadow="0">
      <root>
        <mxCell id="0" />
        <mxCell id="1" parent="0" />
        <mxCell id="xzeQXmWhyYh-CJMgQoSp-10" value="" style="triangle;whiteSpace=wrap;html=1;rotation=-90;" vertex="1" parent="1">
          <mxGeometry x="380" y="400" width="60" height="80" as="geometry" />
        </mxCell>
        <mxCell id="xzeQXmWhyYh-CJMgQoSp-12" value="" style="shape=trapezoid;perimeter=trapezoidPerimeter;whiteSpace=wrap;html=1;fixedSize=1;size=40;" vertex="1" parent="1">
          <mxGeometry x="330" y="470" width="160" height="60" as="geometry" />
        </mxCell>
        <mxCell id="xzeQXmWhyYh-CJMgQoSp-14" value="" style="shape=trapezoid;perimeter=trapezoidPerimeter;whiteSpace=wrap;html=1;fixedSize=1;size=40;" vertex="1" parent="1">
          <mxGeometry x="290" y="530" width="240" height="60" as="geometry" />
        </mxCell>
        <mxCell id="xzeQXmWhyYh-CJMgQoSp-15" value="" style="shape=trapezoid;perimeter=trapezoidPerimeter;whiteSpace=wrap;html=1;fixedSize=1;size=40;" vertex="1" parent="1">
          <mxGeometry x="250" y="590" width="320" height="60" as="geometry" />
        </mxCell>
        <mxCell id="xzeQXmWhyYh-CJMgQoSp-16" value="&lt;b&gt;Register&lt;/b&gt;" style="text;html=1;align=center;verticalAlign=middle;whiteSpace=wrap;rounded=0;" vertex="1" parent="1">
          <mxGeometry x="380" y="440" width="60" height="30" as="geometry" />
        </mxCell>
        <mxCell id="xzeQXmWhyYh-CJMgQoSp-17" value="&lt;b&gt;Cache&lt;/b&gt;" style="text;html=1;align=center;verticalAlign=middle;whiteSpace=wrap;rounded=0;" vertex="1" parent="1">
          <mxGeometry x="380" y="485" width="60" height="30" as="geometry" />
        </mxCell>
        <mxCell id="xzeQXmWhyYh-CJMgQoSp-18" value="&lt;b&gt;Main Memory&lt;/b&gt;" style="text;html=1;align=center;verticalAlign=middle;whiteSpace=wrap;rounded=0;" vertex="1" parent="1">
          <mxGeometry x="374" y="545" width="80" height="30" as="geometry" />
        </mxCell>
        <mxCell id="xzeQXmWhyYh-CJMgQoSp-19" value="&lt;b&gt;SSD Background Memory&lt;/b&gt;" style="text;html=1;align=center;verticalAlign=middle;whiteSpace=wrap;rounded=0;" vertex="1" parent="1">
          <mxGeometry x="336.5" y="605" width="155" height="30" as="geometry" />
        </mxCell>
        <mxCell id="xzeQXmWhyYh-CJMgQoSp-31" style="edgeStyle=orthogonalEdgeStyle;rounded=0;orthogonalLoop=1;jettySize=auto;html=1;entryX=0.5;entryY=0;entryDx=0;entryDy=0;curved=1;" edge="1" parent="1" source="xzeQXmWhyYh-CJMgQoSp-20" target="xzeQXmWhyYh-CJMgQoSp-24">
          <mxGeometry relative="1" as="geometry" />
        </mxCell>
        <mxCell id="xzeQXmWhyYh-CJMgQoSp-20" value="0.2ns" style="text;html=1;align=center;verticalAlign=middle;whiteSpace=wrap;rounded=0;" vertex="1" parent="1">
          <mxGeometry x="450" y="425" width="40" height="30" as="geometry" />
        </mxCell>
        <mxCell id="xzeQXmWhyYh-CJMgQoSp-21" value="1-40ns" style="text;html=1;align=center;verticalAlign=middle;whiteSpace=wrap;rounded=0;" vertex="1" parent="1">
          <mxGeometry x="490" y="485" width="40" height="30" as="geometry" />
        </mxCell>
        <mxCell id="xzeQXmWhyYh-CJMgQoSp-34" style="edgeStyle=orthogonalEdgeStyle;rounded=0;orthogonalLoop=1;jettySize=auto;html=1;exitX=1;exitY=0.5;exitDx=0;exitDy=0;entryX=0.5;entryY=0;entryDx=0;entryDy=0;curved=1;" edge="1" parent="1" source="xzeQXmWhyYh-CJMgQoSp-22" target="xzeQXmWhyYh-CJMgQoSp-26">
          <mxGeometry relative="1" as="geometry">
            <Array as="points">
              <mxPoint x="640" y="560" />
            </Array>
          </mxGeometry>
        </mxCell>
        <mxCell id="xzeQXmWhyYh-CJMgQoSp-22" value="170-250ns" style="text;html=1;align=center;verticalAlign=middle;whiteSpace=wrap;rounded=0;" vertex="1" parent="1">
          <mxGeometry x="530" y="545" width="60" height="30" as="geometry" />
        </mxCell>
        <mxCell id="xzeQXmWhyYh-CJMgQoSp-23" value="10-40&lt;span style=&quot;color: rgb(4, 12, 40); text-align: left;&quot;&gt;&lt;font style=&quot;&quot;&gt;Î¼&lt;/font&gt;&lt;/span&gt;&lt;span style=&quot;background-color: transparent; color: light-dark(rgb(0, 0, 0), rgb(255, 255, 255));&quot;&gt;s&lt;/span&gt;" style="text;html=1;align=center;verticalAlign=middle;whiteSpace=wrap;rounded=0;" vertex="1" parent="1">
          <mxGeometry x="570" y="605" width="50" height="30" as="geometry" />
        </mxCell>
        <mxCell id="xzeQXmWhyYh-CJMgQoSp-27" style="edgeStyle=orthogonalEdgeStyle;rounded=0;orthogonalLoop=1;jettySize=auto;html=1;exitX=1;exitY=0.5;exitDx=0;exitDy=0;curved=1;entryX=0.5;entryY=0;entryDx=0;entryDy=0;" edge="1" parent="1" source="xzeQXmWhyYh-CJMgQoSp-21" target="xzeQXmWhyYh-CJMgQoSp-25">
          <mxGeometry relative="1" as="geometry" />
        </mxCell>
        <mxCell id="xzeQXmWhyYh-CJMgQoSp-32" style="edgeStyle=orthogonalEdgeStyle;rounded=0;orthogonalLoop=1;jettySize=auto;html=1;entryX=1;entryY=0.5;entryDx=0;entryDy=0;curved=1;" edge="1" parent="1" source="xzeQXmWhyYh-CJMgQoSp-24" target="xzeQXmWhyYh-CJMgQoSp-21">
          <mxGeometry relative="1" as="geometry" />
        </mxCell>
        <mxCell id="xzeQXmWhyYh-CJMgQoSp-24" value="x200" style="text;html=1;align=center;verticalAlign=middle;whiteSpace=wrap;rounded=0;" vertex="1" parent="1">
          <mxGeometry x="520" y="460" width="60" height="20" as="geometry" />
        </mxCell>
        <mxCell id="xzeQXmWhyYh-CJMgQoSp-28" style="edgeStyle=orthogonalEdgeStyle;rounded=0;orthogonalLoop=1;jettySize=auto;html=1;entryX=1;entryY=0.5;entryDx=0;entryDy=0;curved=1;" edge="1" parent="1" source="xzeQXmWhyYh-CJMgQoSp-25" target="xzeQXmWhyYh-CJMgQoSp-22">
          <mxGeometry relative="1" as="geometry">
            <Array as="points">
              <mxPoint x="620" y="560" />
            </Array>
          </mxGeometry>
        </mxCell>
        <mxCell id="xzeQXmWhyYh-CJMgQoSp-25" value="x6.25" style="text;html=1;align=center;verticalAlign=middle;whiteSpace=wrap;rounded=0;" vertex="1" parent="1">
          <mxGeometry x="590" y="530" width="60" height="15" as="geometry" />
        </mxCell>
        <mxCell id="xzeQXmWhyYh-CJMgQoSp-35" style="edgeStyle=orthogonalEdgeStyle;rounded=0;orthogonalLoop=1;jettySize=auto;html=1;entryX=1;entryY=0.5;entryDx=0;entryDy=0;curved=1;" edge="1" parent="1" source="xzeQXmWhyYh-CJMgQoSp-26" target="xzeQXmWhyYh-CJMgQoSp-23">
          <mxGeometry relative="1" as="geometry" />
        </mxCell>
        <mxCell id="xzeQXmWhyYh-CJMgQoSp-26" value="x160000" style="text;html=1;align=center;verticalAlign=middle;whiteSpace=wrap;rounded=0;" vertex="1" parent="1">
          <mxGeometry x="610" y="585" width="60" height="15" as="geometry" />
        </mxCell>
      </root>
    </mxGraphModel>
  </diagram>
</mxfile>
